<svg id="Layer_1" data-name="Layer 1" xmlns="http://www.w3.org/2000/svg" viewBox="0 0 955.45 347.7"><defs><style>.cls-1{font-size:110.37px;font-family:Quantico-Regular, Quantico;}.cls-1,.cls-2{fill:#e2e2e2;}.cls-3{fill:none;stroke:#e2e2e2;stroke-linecap:round;stroke-miterlimit:10;stroke-width:8px;}</style></defs><title>logo</title><text class="cls-1" transform="translate(168.18 319.73) scale(1.25 1)">Hardware</text><path class="cls-2" d="M178.45,24.5c4,4.2,6.74,7.72,10.28,10.59C204.61,48,220.85,60.6,236.62,73.58c2.53,2.08,4.56,5.49,4.67,8.35.49,12.89,0,25.81.35,38.7.15,5-2,6.55-8.08,6.44q-20.3-.37-40.62,0c-3.72.07-7.41,1.42-11.11,2.19,1.81,2.76,2.93,6,5.54,8.19,15.18,12.46,30.48,24.83,46.23,36.82,5.76,4.38,8.4,8.82,8.1,15.28-.64,13.33-.19,26.69-.19,40.81-3.38.15-6.19.37-9,.37-29.74,0-59.48.19-89.21-.17a25,25,0,0,1-13.15-4.12Q78.64,189,27.84,150.92c-2.42-1.81-4.3-5.13-4.34-7.76q-.46-39.42,0-78.83a10.14,10.14,0,0,1,3.75-7.28C40.42,47,53.94,37.24,67.54,27.54c2-1.44,5-2.9,7.53-2.91C110.07,24.44,145.07,24.5,178.45,24.5ZM27.75,103.75c0,12.2-.18,24.41.14,36.61.07,2.54,1.07,5.82,3.21,7.47q18.7,14.43,38.33,28.1a21.26,21.26,0,0,0,10.95,3.38c29.74.27,59.48.06,89.22.23,5.78,0,7.7-1.52,7.59-6.08-.3-11.73-.33-23.47,0-35.2.14-4.92-2-6.49-8.14-6.42-21.78.23-43.58-.07-65.36.17-7,.07-10-1.35-9.76-7.5.55-13.83.55-27.7,0-41.53-.24-6.14,2.76-7.58,9.75-7.51,21.78.24,43.58,0,65.36.17,6.12.07,8.29-1.48,8.15-6.41-.35-11.5-.4-23,0-34.49.19-5.22-1.87-6.89-8.49-6.83-29.15.25-58.31-.05-87.45.28A24.51,24.51,0,0,0,68.8,32c-12.69,8.73-25,17.84-37,27.18a11.18,11.18,0,0,0-3.88,7.93C27.52,79.34,27.75,91.55,27.75,103.75Z"/><path class="cls-2" d="M719.57,180.82V24h72.92c3.93,4,7.31,8,11.5,11.45,15.14,12.34,30.77,24.3,45.7,36.8,3,2.54,5.31,6.75,5.45,10.26.6,14.57.25,29.16.25,43.55,18.42,2.85,18.43,2.84,31.6,13.33,15.74,12.53,31.62,24.95,47,37.74a13.59,13.59,0,0,1,4.79,9.15c.5,14.61.22,29.24.22,44.51-3.52.16-6.37.41-9.22.41-45.39,0-90.78.13-136.17-.17a23.83,23.83,0,0,1-12.91-4.26c-16.31-12.39-32-25.32-48.07-37.91C729,186.06,724.58,183.88,719.57,180.82Zm4.64-2.2a16.58,16.58,0,0,0,3.15.79q70.3.09,140.59.19c5.5,0,6.27-2.19,6.24-5.75-.13-11.82-.33-23.64.08-35.45.19-5.31-2.07-6.93-8.67-6.84-21.35.29-42.72-.14-64.06.23-8.28.14-11.34-1.55-11.19-8.67.53-26.46.21-52.94.21-79.42,0-16.7,0-16.7-20.85-16.7h-45.5Z"/><polygon class="cls-2" points="627.45 42.2 706.82 103.77 706.82 231.28 627.45 169.71 627.45 42.2"/><polygon class="cls-2" points="260.72 169.71 629.56 169.71 706.82 231.28 337.98 231.28 260.72 169.71"/><polygon class="cls-2" points="260.72 24.94 282.65 42.41 260.72 42.41 260.72 24.94"/><polygon class="cls-2" points="316.31 231.28 258.05 188.87 260.72 169.71 337.98 231.28 316.31 231.28"/><line class="cls-3" x1="228.95" y1="24.94" x2="260.72" y2="24.94"/><line class="cls-3" x1="260.72" y1="24.94" x2="260.72" y2="186.98"/><path class="cls-3" d="M260.72,42.2H620.45c3.87,0,7,2.5,7,5.58V164.13c0,3.08-3.13,5.58-7,5.58H260.72"/><path class="cls-3" d="M608.56,169.71v13.81a45.43,45.43,0,0,1-7,.27h-146a45.54,45.54,0,0,1-7-.27V169.71Z"/><path class="cls-3" d="M399.45,169.71v13.81a10.56,10.56,0,0,1-3.34.27h-69.8a10.56,10.56,0,0,1-3.34-.27V169.71Z"/><ellipse class="cls-3" cx="361.21" cy="105.96" rx="66.87" ry="53.29"/><ellipse class="cls-2" cx="361.21" cy="105.96" rx="13.7" ry="10.92"/><path class="cls-2" d="M294.35,106s19.58-37.68,66.86,0,66.86,0,66.86,0l-6.61,23.14-13,14.53S361.21,159.24,361.21,106s-47.28-37.68-47.28-37.68L300.4,83.77Z"/><path class="cls-2" d="M361.21,159.24s-47.28-15.6,0-53.28,0-53.29,0-53.29l29,5.28,18.24,10.33S428.08,106,361.21,106s-47.28,37.67-47.28,37.67l19.44,10.79Z"/><ellipse class="cls-3" cx="528.56" cy="105.96" rx="66.87" ry="53.29"/><ellipse class="cls-2" cx="528.56" cy="105.96" rx="13.7" ry="10.92"/><path class="cls-2" d="M461.7,106s19.58-37.68,66.86,0,66.87,0,66.87,0l-6.62,23.14-13,14.53S528.56,159.24,528.56,106s-47.28-37.68-47.28-37.68L467.75,83.77Z"/><path class="cls-2" d="M528.56,159.24s-47.28-15.6,0-53.28,0-53.29,0-53.29l29,5.28,18.24,10.33S595.43,106,528.56,106s-47.28,37.67-47.28,37.67l19.44,10.79Z"/></svg>